<svg width="217" height="56" viewBox="0 0 217 56" fill="none" xmlns="http://www.w3.org/2000/svg">
<g filter="url(#filter0_d_2_370)">
<path d="M0 10.1567C0 4.57306 4.53281 0.0694799 10.1159 0.149592C36.5711 0.529199 109.464 1.5 163.037 1.5C176.631 1.5 195.127 0.876479 206.554 0.433446C212.251 0.212543 217 4.76488 217 10.4666V40.2668C217 45.6844 212.724 50.1119 207.308 50.2311C182.03 50.7871 112.664 52.0107 63.7222 50C46.8383 49.3064 23.4919 49.555 10.2516 49.7859C4.62676 49.884 0 45.3595 0 39.7338V10.1567Z" fill="white"/>
<path d="M0.5 10.1567C0.5 4.84969 4.80687 0.573464 10.1087 0.649541C36.5638 1.02915 109.46 2 163.037 2C176.642 2 195.147 1.37611 206.573 0.933071C211.988 0.72312 216.5 5.04966 216.5 10.4666V40.2668C216.5 45.4162 212.438 49.6181 207.297 49.7312C182.018 50.2872 112.667 51.5104 63.7427 49.5004C46.8426 48.8061 23.4831 49.0551 10.2429 49.286C4.89609 49.3792 0.5 45.0785 0.5 39.7338V10.1567Z" stroke="#1C1C1D"/>
</g>
<defs>
<filter id="filter0_d_2_370" x="0" y="0.14856" width="217" height="54.9625" filterUnits="userSpaceOnUse" color-interpolation-filters="sRGB">
<feFlood flood-opacity="0" result="BackgroundImageFix"/>
<feColorMatrix in="SourceAlpha" type="matrix" values="0 0 0 0 0 0 0 0 0 0 0 0 0 0 0 0 0 0 127 0" result="hardAlpha"/>
<feOffset dy="4"/>
<feColorMatrix type="matrix" values="0 0 0 0 0.125 0 0 0 0 0.125 0 0 0 0 0.125 0 0 0 1 0"/>
<feBlend mode="normal" in2="BackgroundImageFix" result="effect1_dropShadow_2_370"/>
<feBlend mode="normal" in="SourceGraphic" in2="effect1_dropShadow_2_370" result="shape"/>
</filter>
</defs>
</svg>
