<svg width="189" height="51" viewBox="0 0 189 51" fill="none" xmlns="http://www.w3.org/2000/svg">
<g filter="url(#filter0_d_2_480)">
<path d="M0 10.3814C0 4.71185 4.70116 0.173724 10.3674 0.368645C29.4031 1.02349 70.1985 2.32143 94.5 2.32143C128.094 2.32143 161.943 1.13543 178.52 0.458861C184.23 0.22582 189 4.78613 189 10.5007V36.4286C189 41.9514 184.537 46.4286 179.015 46.4286C159.926 46.4286 117.781 46.4286 91 46.4286C74.4199 46.4286 29.9545 46.4286 9.96938 46.4286C4.44653 46.4286 0 41.9514 0 36.4286V10.3814Z" fill="#FFBD12"/>
<path d="M0.5 10.3814C0.5 4.995 4.96641 0.683145 10.3502 0.86835C29.3842 1.52313 70.1884 2.82143 94.5 2.82143C128.104 2.82143 161.961 1.63513 178.541 0.958445C183.968 0.736941 188.5 5.07151 188.5 10.5007V36.4286C188.5 41.6762 184.26 45.9286 179.015 45.9286H178.902H178.79H178.677H178.563H178.449H178.334H178.219H178.103H177.987H177.87H177.753H177.635H177.517H177.398H177.278H177.159H177.038H176.918H176.796H176.674H176.552H176.429H176.306H176.182H176.058H175.933H175.808H175.682H175.556H175.429H175.302H175.175H175.047H174.918H174.789H174.66H174.53H174.399H174.268H174.137H174.005H173.873H173.74H173.607H173.473H173.339H173.205H173.07H172.934H172.798H172.662H172.525H172.388H172.251H172.113H171.974H171.835H171.696H171.556H171.416H171.275H171.134H170.993H170.851H170.708H170.566H170.423H170.279H170.135H169.991H169.846H169.701H169.555H169.409H169.263H169.116H168.969H168.821H168.673H168.525H168.376H168.227H168.077H167.927H167.777H167.626H167.475H167.324H167.172H167.02H166.867H166.714H166.561H166.407H166.253H166.099H165.944H165.789H165.633H165.478H165.321H165.165H165.008H164.851H164.693H164.535H164.377H164.218H164.059H163.9H163.74H163.58H163.42H163.259H163.098H162.937H162.775H162.613H162.451H162.288H162.125H161.962H161.798H161.634H161.47H161.306H161.141H160.975H160.81H160.644H160.478H160.312H160.145H159.978H159.811H159.643H159.475H159.307H159.139H158.97H158.801H158.632H158.462H158.292H158.122H157.951H157.781H157.61H157.438H157.267H157.095H156.923H156.751H156.578H156.405H156.232H156.059H155.885H155.711H155.537H155.362H155.188H155.013H154.838H154.662H154.487H154.311H154.134H153.958H153.781H153.605H153.428H153.25H153.073H152.895H152.717H152.539H152.36H152.181H152.003H151.823H151.644H151.465H151.285H151.105H150.925H150.744H150.564H150.383H150.202H150.021H149.839H149.658H149.476H149.294H149.112H148.929H148.747H148.564H148.381H148.198H148.014H147.831H147.647H147.463H147.279H147.095H146.911H146.726H146.542H146.357H146.172H145.986H145.801H145.615H145.43H145.244H145.058H144.872H144.685H144.499H144.312H144.126H143.939H143.752H143.565H143.377H143.19H143.002H142.814H142.627H142.439H142.25H142.062H141.874H141.685H141.497H141.308H141.119H140.93H140.741H140.552H140.363H140.173H139.984H139.794H139.604H139.414H139.224H139.034H138.844H138.654H138.464H138.273H138.083H137.892H137.701H137.51H137.32H137.129H136.938H136.746H136.555H136.364H136.173H135.981H135.79H135.598H135.406H135.215H135.023H134.831H134.639H134.447H134.255H134.063H133.871H133.679H133.487H133.295H133.102H132.91H132.718H132.525H132.333H132.14H131.948H131.755H131.562H131.37H131.177H130.984H130.792H130.599H130.406H130.213H130.02H129.828H129.635H129.442H129.249H129.056H128.863H128.67H128.477H128.284H128.092H127.899H127.706H127.513H127.32H127.127H126.934H126.741H126.548H126.355H126.163H125.97H125.777H125.584H125.391H125.199H125.006H124.813H124.621H124.428H124.235H124.043H123.85H123.658H123.465H123.273H123.08H122.888H122.696H122.504H122.311H122.119H121.927H121.735H121.543H121.351H121.159H120.968H120.776H120.584H120.393H120.201H120.01H119.818H119.627H119.436H119.245H119.053H118.862H118.672H118.481H118.29H118.099H117.909H117.718H117.528H117.338H117.147H116.957H116.767H116.577H116.388H116.198H116.008H115.819H115.629H115.44H115.251H115.062H114.873H114.684H114.496H114.307H114.119H113.93H113.742H113.554H113.366H113.178H112.991H112.803H112.616H112.428H112.241H112.054H111.868H111.681H111.494H111.308H111.122H110.936H110.75H110.564H110.378H110.193H110.008H109.822H109.637H109.453H109.268H109.084H108.899H108.715H108.531H108.347H108.164H107.98H107.797H107.614H107.431H107.249H107.066H106.884H106.702H106.52H106.338H106.157H105.975H105.794H105.613H105.433H105.252H105.072H104.892H104.712H104.532H104.353H104.174H103.994H103.816H103.637H103.459H103.281H103.103H102.925H102.748H102.57H102.393H102.217H102.04H101.864H101.688H101.512H101.337H101.161H100.986H100.811H100.637H100.463H100.289H100.115H99.9412H99.7679H99.5949H99.4222H99.2497H99.0775H98.9055H98.7338H98.5624H98.3913H98.2204H98.0498H97.8795H97.7095H97.5397H97.3702H97.2011H97.0322H96.8635H96.6952H96.5272H96.3595H96.192H96.0249H95.858H95.6915H95.5253H95.3593H95.1937H95.0284H94.8633H94.6986H94.5342H94.3702H94.2064H94.0429H93.8798H93.717H93.5545H93.3924H93.2305H93.069H92.9078H92.747H92.5865H92.4263H92.2664H92.1069H91.9478H91.7889H91.6305H91.4723H91.3145H91.1571H91H90.9025H90.8044H90.7057H90.6063H90.5063H90.4057H90.3045H90.2026H90.1001H89.997H89.8933H89.7889H89.684H89.5784H89.4723H89.3655H89.2582H89.1502H89.0416H88.9325H88.8227H88.7124H88.6015H88.49H88.3779H88.2653H88.152H88.0382H87.9238H87.8088H87.6933H87.5772H87.4606H87.3434H87.2256H87.1072H86.9884H86.8689H86.7489H86.6284H86.5073H86.3857H86.2635H86.1408H86.0176H85.8938H85.7696H85.6447H85.5194H85.3935H85.2671H85.1402H85.0128H84.8848H84.7564H84.6274H84.4979H84.3679H84.2375H84.1065H83.975H83.843H83.7106H83.5776H83.4442H83.3102H83.1758H83.0409H82.9055H82.7697H82.6333H82.4966H82.3593H82.2215H82.0833H81.9447H81.8055H81.666H81.5259H81.3854H81.2445H81.1031H80.9613H80.819H80.6763H80.5331H80.3895H80.2455H80.101H79.9561H79.8108H79.665H79.5189H79.3723H79.2253H79.0778H78.93H78.7817H78.6331H78.484H78.3345H78.1847H78.0344H77.8837H77.7327H77.5812H77.4294H77.2771H77.1245H76.9715H76.8181H76.6644H76.5102H76.3557H76.2008H76.0456H75.89H75.734H75.5776H75.4209H75.2639H75.1064H74.9487H74.7906H74.6321H74.4733H74.3141H74.1546H73.9948H73.8346H73.6741H73.5133H73.3521H73.1906H73.0288H72.8666H72.7042H72.5414H72.3783H72.2149H72.0512H71.8872H71.7228H71.5582H71.3933H71.228H71.0625H70.8967H70.7306H70.5641H70.3975H70.2305H70.0632H69.8957H69.7279H69.5598H69.3914H69.2228H69.0538H68.8847H68.7152H68.5455H68.3756H68.2054H68.0349H67.8642H67.6932H67.522H67.3505H67.1788H67.0069H66.8347H66.6623H66.4896H66.3168H66.1437H65.9703H65.7968H65.623H65.449H65.2748H65.1003H64.9257H64.7508H64.5758H64.4005H64.225H64.0494H63.8735H63.6974H63.5212H63.3447H63.1681H62.9913H62.8142H62.6371H62.4597H62.2821H62.1044H61.9265H61.7485H61.5702H61.3918H61.2133H61.0345H60.8557H60.6766H60.4974H60.3181H60.1386H59.959H59.7792H59.5993H59.4192H59.239H59.0587H58.8782H58.6976H58.5169H58.336H58.1551H57.974H57.7928H57.6114H57.43H57.2484H57.0668H56.885H56.7031H56.5211H56.3391H56.1569H55.9746H55.7923H55.6098H55.4273H55.2446H55.0619H54.8791H54.6963H54.5133H54.3303H54.1472H53.9641H53.7808H53.5975H53.4142H53.2308H53.0473H52.8638H52.6802H52.4965H52.3129H52.1291H51.9454H51.7615H51.5777H51.3938H51.2099H51.0259H50.8419H50.6579H50.4739H50.2898H50.1058H49.9217H49.7376H49.5534H49.3693H49.1852H49.001H48.8168H48.6327H48.4485H48.2644H48.0802H47.8961H47.712H47.5278H47.3437H47.1597H46.9756H46.7916H46.6075H46.4235H46.2396H46.0557H45.8718H45.6879H45.5041H45.3203H45.1365H44.9529H44.7692H44.5856H44.4021H44.2186H44.0351H43.8518H43.6684H43.4852H43.302H43.1189H42.9359H42.7529H42.57H42.3872H42.2045H42.0218H41.8392H41.6568H41.4744H41.2921H41.1099H40.9278H40.7458H40.5639H40.382H40.2004H40.0188H39.8373H39.6559H39.4747H39.2936H39.1125H38.9317H38.7509H38.5703H38.3898H38.2094H38.0291H37.849H37.6691H37.4893H37.3096H37.13H36.9507H36.7714H36.5924H36.4134H36.2347H36.0561H35.8776H35.6993H35.5212H35.3433H35.1655H34.9879H34.8105H34.6332H34.4562H34.2793H34.1026H33.9261H33.7498H33.5737H33.3977H33.222H33.0465H32.8712H32.696H32.5211H32.3464H32.1719H31.9976H31.8236H31.6497H31.4761H31.3027H31.1295H30.9566H30.7839H30.6114H30.4391H30.2671H30.0953H29.9238H29.7525H29.5815H29.4107H29.2401H29.0698H28.8998H28.73H28.5605H28.3913H28.2223H28.0536H27.8851H27.717H27.5491H27.3814H27.2141H27.047H26.8803H26.7138H26.5476H26.3817H26.216H26.0507H25.8857H25.721H25.5566H25.3924H25.2286H25.0651H24.902H24.7391H24.5765H24.4143H24.2524H24.0908H23.9295H23.7686H23.608H23.4477H23.2878H23.1282H22.9689H22.81H22.6514H22.4932H22.3354H22.1778H22.0207H21.8639H21.7074H21.5513H21.3956H21.2402H21.0852H20.9306H20.7764H20.6225H20.469H20.3159H20.1632H20.0108H19.8589H19.7073H19.5561H19.4053H19.2549H19.1049H18.9554H18.8062H18.6574H18.509H18.3611H18.2135H18.0664H17.9197H17.7734H17.6275H17.4821H17.337H17.1924H17.0483H16.9046H16.7613H16.6184H16.476H16.334H16.1925H16.0514H15.9108H15.7706H15.6309H15.4917H15.3529H15.2145H15.0767H14.9393H14.8023H14.6659H14.5299H14.3943H14.2593H14.1248H13.9907H13.8571H13.724H13.5914H13.4593H13.3276H13.1965H13.0659H12.9358H12.8061H12.677H12.5484H12.4203H12.2927H12.1657H12.0391H11.9131H11.7876H11.6626H11.5382H11.4143H11.2909H11.168H11.0457H10.9239H10.8027H10.682H10.5618H10.4422H10.3232H10.2047H10.0868H9.96938C4.72467 45.9286 0.5 41.6773 0.5 36.4286V10.3814Z" stroke="#1C1C1D"/>
</g>
<defs>
<filter id="filter0_d_2_480" x="0" y="0.362549" width="189" height="50.0659" filterUnits="userSpaceOnUse" color-interpolation-filters="sRGB">
<feFlood flood-opacity="0" result="BackgroundImageFix"/>
<feColorMatrix in="SourceAlpha" type="matrix" values="0 0 0 0 0 0 0 0 0 0 0 0 0 0 0 0 0 0 127 0" result="hardAlpha"/>
<feOffset dy="4"/>
<feColorMatrix type="matrix" values="0 0 0 0 0.125 0 0 0 0 0.125 0 0 0 0 0.125 0 0 0 1 0"/>
<feBlend mode="normal" in2="BackgroundImageFix" result="effect1_dropShadow_2_480"/>
<feBlend mode="normal" in="SourceGraphic" in2="effect1_dropShadow_2_480" result="shape"/>
</filter>
</defs>
</svg>
