<svg width="403" height="54" viewBox="0 0 403 54" fill="none" xmlns="http://www.w3.org/2000/svg">
<g filter="url(#filter0_d_2_428)">
<path d="M0 10.6258C0 4.86455 4.84841 0.289829 10.6017 0.592708C20.8103 1.13013 36.3689 1.85922 47.9762 2C156.217 3.31283 346.942 0.795595 392.853 0.146966C398.434 0.0681112 403 4.57041 403 10.1524V40C403 45.5228 398.551 49.9984 393.028 49.9877C364.733 49.9328 282.223 49.6333 223.889 48C150.958 45.958 43.6153 48.724 10.2659 49.6895C4.61799 49.8531 0 45.3196 0 39.6694V10.6258Z" fill="#FA6648"/>
<path d="M0.5 10.6258C0.5 5.15268 5.10653 0.80411 10.5754 1.09202C20.7844 1.62946 36.3518 2.35905 47.9701 2.49996C156.218 3.81289 346.95 1.29552 392.86 0.646916C398.162 0.572002 402.5 4.84929 402.5 10.1524V40C402.5 45.2486 398.273 49.4978 393.029 49.4877C364.734 49.4328 282.23 49.1333 223.903 47.5002C150.955 45.4577 43.5993 48.2243 10.2514 49.1897C4.88832 49.345 0.5 45.041 0.5 39.6694V10.6258Z" stroke="#1C1C1D"/>
</g>
<defs>
<filter id="filter0_d_2_428" x="0" y="0.145996" width="403" height="53.8418" filterUnits="userSpaceOnUse" color-interpolation-filters="sRGB">
<feFlood flood-opacity="0" result="BackgroundImageFix"/>
<feColorMatrix in="SourceAlpha" type="matrix" values="0 0 0 0 0 0 0 0 0 0 0 0 0 0 0 0 0 0 127 0" result="hardAlpha"/>
<feOffset dy="4"/>
<feColorMatrix type="matrix" values="0 0 0 0 0.125 0 0 0 0 0.125 0 0 0 0 0.125 0 0 0 1 0"/>
<feBlend mode="normal" in2="BackgroundImageFix" result="effect1_dropShadow_2_428"/>
<feBlend mode="normal" in="SourceGraphic" in2="effect1_dropShadow_2_428" result="shape"/>
</filter>
</defs>
</svg>
